<?xml version="1.0" standalone="no"?><!DOCTYPE svg PUBLIC "-//W3C//DTD SVG 1.1//EN" "http://www.w3.org/Graphics/SVG/1.1/DTD/svg11.dtd"><svg t="1596249020819" class="icon" viewBox="0 0 1024 1024" version="1.1" xmlns="http://www.w3.org/2000/svg" p-id="12692" xmlns:xlink="http://www.w3.org/1999/xlink" width="16" height="16"><defs><style type="text/css"></style></defs><path d="M512 899.5c-213.668 0-387.5-173.832-387.5-387.5S298.332 124.5 512 124.5 899.5 298.332 899.5 512 725.668 899.5 512 899.5z" fill="#4472C4" p-id="12693"></path><path d="M512 137c-206.776 0-375 168.224-375 375s168.224 375 375 375 375-168.224 375-375-168.224-375-375-375m0-25c220.914 0 400 179.086 400 400S732.914 912 512 912 112 732.914 112 512s179.086-400 400-400z" fill="#4472C4" p-id="12694"></path><path d="M664.644 466.559c0-23.155-3.473-43.994-10.42-63.1a166.564 166.564 0 0 0-27.786-48.625 150.268 150.268 0 0 0-43.994-31.838 143.4 143.4 0 0 0-54.993-11c-37.048 0-75.253 13.893-114.617 40.521a73.171 73.171 0 0 1-1.734-12.152c-0.579-1.737-1.158-2.894-1.158-4.052-1.737-2.894-5.789-5.789-11.577-8.683-6.948-2.316-12.737-4.05-17.365-4.05-1.158 0-3.473 1.158-5.789 2.894a61.316 61.316 0 0 0-6.946 5.789 75.169 75.169 0 0 0-6.946 8.1c-1.74 2.317-2.319 4.054-2.319 5.212 0 3.473 0 6.368 1.158 8.683s2.315 5.21 3.473 8.1c1.737 3.473 3.473 6.368 4.631 9.262a71.993 71.993 0 0 0 2.315 9.262l1.158 6.947a43.813 43.813 0 0 0 0.579 8.683 60.091 60.091 0 0 0-4.052 6.946 17.846 17.846 0 0 0-0.579 5.789c0 5.21 2.315 10.42 7.525 15.63l2.315 26.628 1.158 26.628v26.049c0 8.1 0.579 15.63 0.579 21.418 0 18.524-0.579 34.732-0.579 48.625 0 15.051-0.579 28.944-0.579 41.679l-1.737 37.048-1.157 38.788a7.432 7.432 0 0 0 2.315 5.789 18.1 18.1 0 0 0 6.368 5.21 20.424 20.424 0 0 0 7.525 4.631 15.092 15.092 0 0 0 6.368 1.737c5.21 0 9.841-1.737 14.472-5.21 4.052-2.894 6.368-8.1 7.525-16.208 16.208 8.683 31.838 15.051 45.731 18.524 13.893 4.052 24.891 5.789 32.417 5.789 24.313 0 47.467-4.631 68.307-13.893 20.26-8.683 37.627-23.155 52.1-42.836s26.049-45.152 34.153-76.411c8.103-30.682 12.155-68.309 12.155-112.303z m-47.467 9.841c0 35.311-3.473 65.412-9.262 90.883-6.368 25.47-15.051 46.889-25.47 63.676s-23.155 28.944-37.048 37.048c-15.051 8.1-30.1 12.156-46.31 12.156-9.841 0-18.524-1.158-25.47-4.052a110.242 110.242 0 0 1-20.26-9.841 57.185 57.185 0 0 1-8.683-5.21l-6.946-5.21-6.948-3.47c-2.315-0.579-4.631-1.158-8.1-2.315V481.03l-1.158-35.311c0-11.577-0.579-23.734-0.579-35.89a33.091 33.091 0 0 1 4.052-4.631l3.473-4.631a20.6 20.6 0 0 1 6.946-7.525l10.42-10.42c2.894-2.894 5.789-5.789 9.262-8.683a171.366 171.366 0 0 1 18.524-13.893 82.129 82.129 0 0 1 20.839-8.1 180.29 180.29 0 0 1 28.365-2.315 72.868 72.868 0 0 1 38.206 10.42 107.993 107.993 0 0 1 29.522 28.944 154.9 154.9 0 0 1 19.682 40.521 158.53 158.53 0 0 1 6.943 46.883z" fill="#FFFFFF" p-id="12695"></path></svg>